<svg width="32" height="32" viewBox="0 0 73 137" version="1.1" xmlns="http://www.w3.org/2000/svg" style="fill-rule:evenodd;clip-rule:evenodd;stroke-linejoin:round;stroke-miterlimit:2;">
    <g transform="matrix(0.349056,0,0,0.349056,0.00098021,1)">
        <g>
            <path d="M138.88,89.2L138.88,210.14L138.87,210.44C139.81,231.64 134.55,247.74 124.87,260.22C115.08,272.84 100.97,281.47 84.32,287.73C83.1,288.19 81.83,288.4 80.58,288.4L80.58,288.43L9.49,288.43C4.25,288.43 0,284.74 0,280.19C0,278.51 0.58,276.95 1.58,275.64L121.1,85.27C123.6,81.29 129.34,79.82 133.92,81.99C137.07,83.48 138.85,86.29 138.85,89.2L138.88,89.2ZM119.91,210.14L119.91,121.46L25.42,271.96L78.67,271.96C91.32,266.97 101.93,260.34 109.16,251.01C116.67,241.33 120.73,228.46 119.97,211.09C119.93,210.77 119.91,210.45 119.91,210.13L119.91,210.14Z" style="fill:rgb(212,237,49);fill-rule:nonzero;"/>
            <path d="M69.4,383C69.4,367.31 69.13,354.14 68.86,340.98C68.27,312.68 67.69,284.37 69.44,256.14C69.46,255.81 69.5,255.49 69.56,255.18L69.55,255.18C72.5,240.28 79.26,223.57 88.81,210.1C97.45,197.92 108.54,188.2 121.55,184.26L121.74,184.2L121.74,184.19C132.29,181.2 152.17,182.08 172.05,182.96C181.19,183.36 190.32,183.77 198.8,183.77C204.04,183.77 208.28,187.46 208.28,192.01C208.28,193.69 207.7,195.25 206.7,196.56L87.18,386.93C84.68,390.91 78.94,392.38 74.36,390.21C71.21,388.72 69.43,385.91 69.43,383L69.4,383ZM87.75,340.72L87.97,351.38L183.09,199.87C179.17,199.72 175.13,199.54 171.08,199.36C152.97,198.56 134.86,197.75 127.59,199.82L127.59,199.81C119.14,202.44 111.37,209.58 104.89,218.71C96.74,230.2 90.92,244.59 88.3,257.56C86.61,285.32 87.18,313.02 87.75,340.72Z" style="fill:rgb(10,46,37);fill-rule:nonzero;"/>
            <circle cx="120.42" cy="32.6" r="32.6" style="fill:rgb(10,46,37);"/>
        </g>
    </g>
</svg>
